# xmcd
#
# Track frame offsets: 
#        150
#        14138
#        29330
#        48098
#        65571
#        82497
#        97686
#        115810
#        133588
#        150882
#
# Disc length: 2214 seconds
#
# Revision: 0
# Processed by: cddbd v1.5.2PL0 Copyright (c) Steve Scherf et al.
# Submitted via: ExactAudioCopy v1.0b3
#
DISCID=7a08a40a
DTITLE=Roger Creager - Surrender
DYEAR=2012
DGENRE=Country
TTITLE0=Turn It Up
TTITLE1=Something To Believe In
TTITLE2=Dead Love
TTITLE3=If You Really Love Me
TTITLE4=Bad Friend To A Good Man
TTITLE5=For You I Do
TTITLE6=Redemption Song
TTITLE7=Crazy Again
TTITLE8=I'll Take Anything
TTITLE9=Surrender
EXTD=
EXTT0=
EXTT1=
EXTT2=
EXTT3=
EXTT4=
EXTT5=
EXTT6=
EXTT7=
EXTT8=
EXTT9=
PLAYORDER=
